<svg id="Pull-Request--Streamline-Carbon" xmlns="http://www.w3.org/2000/svg" viewBox="0 0 16 16" height="16" width="16">
  <desc>
    Pull Request Streamline Icon: https://streamlinehq.com
  </desc>
  <defs></defs>
  <path d="M12.5 11.07105V4.5c0 -1.1028 -0.8972 -2 -2 -2h-2.08595l1.29295 -1.29295L8.99995 0.5l-2.5 2.5 2.5 2.5 0.70705 -0.70705L8.41405 3.5H10.5c0.5514 0 1 0.44875 1 1v6.57105c-0.8601 0.22365 -1.5 0.99975 -1.5 1.92895 0 1.1028 0.8972 2 2 2s2 -0.8972 2 -2c0 -0.9292 -0.6399 -1.7053 -1.5 -1.92895ZM12 14c-0.5514 0 -1 -0.44875 -1 -1s0.4486 -1 1 -1 1 0.44875 1 1 -0.4486 1 -1 1Z" stroke-width="0.5" fill="#ffffff"></path>
  <path d="M2 3c0 0.9292 0.6399 1.7053 1.5 1.92895v6.1421c-0.8601 0.2235 -1.5 0.99965 -1.5 1.92895 0 1.10305 0.8972 2 2 2s2 -0.89695 2 -2c0 -0.9293 -0.6399 -1.70545 -1.5 -1.92895V4.92895C5.3601 4.7053 6 3.9292 6 3c0 -1.1028 -0.8972 -2 -2 -2S2 1.8972 2 3Zm3 10c0 0.55125 -0.4485 1 -1 1s-1 -0.44875 -1 -1 0.4485 -1 1 -1 1 0.44875 1 1Zm0 -10c0 0.5515 -0.4485 1 -1 1s-1 -0.4485 -1 -1 0.4485 -1 1 -1 1 0.4485 1 1Z" stroke-width="0.5" fill="#ffffff"></path>
  <path id="_Transparent_Rectangle_" d="M0 0h16v16H0Z" stroke-width="0.5" fill="none"></path>
</svg>